<svg xmlns="http://www.w3.org/2000/svg" viewBox="0 0 128 128" width="32" height="32"><path fill="#3178c6" d="M2 63.91v62.5h125v-125H2zm100.73-5a15.56 15.56 0 017.82 4.5 20.58 20.58 0 013 4c0 .16-5.4 3.81-8.69 5.85-.12.08-.6-.44-1.13-1.23a6.55 6.55 0 00-5.48-3.13c-3.55-.26-5.84 1.66-5.82 4.84a4.53 4.53 0 00.49 2.35c.67 1.34 2 2.17 6.53 4.08 8.32 3.51 11.88 5.79 14.18 9.1a15.84 15.84 0 011.64 13.07 16.77 16.77 0 01-14.34 11.71 43.83 43.83 0 01-10.72-.14 25.8 25.8 0 01-12.35-6.26 22.24 22.24 0 01-3.26-4.63c.06-.09 1.31-.81 2.78-1.62l4.42-2.44 1.31-.71.84 1.23a14.13 14.13 0 005.47 4.64 15.14 15.14 0 0012.55-.15 5.85 5.85 0 002.4-7.16c-.65-1.44-2-2.41-6.13-4.33-6.76-3.12-10.8-5.67-13.29-8.41a18.73 18.73 0 01-3.5-13.94 16.16 16.16 0 0112.13-13.18 37.39 37.39 0 0112.48.05zM73.06 80v7.35H52.19v33.24h-10.5V87.38H20.88V80c0-4 .08-7.39.18-7.44s11.71-.1 25.92-.07l25.87.05z"/></svg>
